<svg version="1.1" viewBox="0.0 0.0 1431.9434.0882.5.0" width="1431.9434" height="882.5" fill="none" stroke="none" stroke-linecap="square" stroke-miterlimit="10" xmlns:xlink="http://www.w3.org/1999/xlink" xmlns="http://www.w3.org/2000/svg">
<circle cx="0.0" cy="75.91263" r="1" stroke="black" fill="black" />
<circle cx="267.26538" cy="282.37653" r="1" stroke="black" fill="black" />
<line x1="0.0" y1="75.91263" x2="267.26538" y2="282.37653" style="stroke:black;stroke-width:0.3" />
<circle cx="326.27908" cy="321.7704" r="1" stroke="black" fill="black" />
<line x1="267.26538" y1="282.37653" x2="326.27908" y2="321.7704" style="stroke:black;stroke-width:0.3" />
<circle cx="429.55408" cy="330.9739" r="1" stroke="black" fill="black" />
<line x1="326.27908" y1="321.7704" x2="429.55408" y2="330.9739" style="stroke:black;stroke-width:0.3" />
<circle cx="418.77353" cy="410.91003" r="1" stroke="black" fill="black" />
<line x1="429.55408" y1="330.9739" x2="418.77353" y2="410.91003" style="stroke:black;stroke-width:0.3" />
<circle cx="422.74542" cy="470.14636" r="1" stroke="black" fill="black" />
<line x1="418.77353" y1="410.91003" x2="422.74542" y2="470.14636" style="stroke:black;stroke-width:0.3" />
<circle cx="381.6062" cy="467.55838" r="1" stroke="black" fill="black" />
<line x1="422.74542" y1="470.14636" x2="381.6062" y2="467.55838" style="stroke:black;stroke-width:0.3" />
<circle cx="434.66107" cy="520.4704" r="1" stroke="black" fill="black" />
<line x1="381.6062" y1="467.55838" x2="434.66107" y2="520.4704" style="stroke:black;stroke-width:0.3" />
<circle cx="497.64667" cy="583.156" r="1" stroke="black" fill="black" />
<line x1="434.66107" y1="520.4704" x2="497.64667" y2="583.156" style="stroke:black;stroke-width:0.3" />
<circle cx="495.37848" cy="586.6053" r="1" stroke="black" fill="black" />
<line x1="497.64667" y1="583.156" x2="495.37848" y2="586.6053" style="stroke:black;stroke-width:0.3" />
<circle cx="476.0856" cy="633.76715" r="1" stroke="black" fill="black" />
<line x1="495.37848" y1="586.6053" x2="476.0856" y2="633.76715" style="stroke:black;stroke-width:0.3" />
<circle cx="472.39694" cy="649.58215" r="1" stroke="black" fill="black" />
<line x1="476.0856" y1="633.76715" x2="472.39694" y2="649.58215" style="stroke:black;stroke-width:0.3" />
<circle cx="519.495" cy="654.47095" r="1" stroke="black" fill="black" />
<line x1="472.39694" y1="649.58215" x2="519.495" y2="654.47095" style="stroke:black;stroke-width:0.3" />
<circle cx="505.0239" cy="685.5267" r="1" stroke="black" fill="black" />
<line x1="519.495" y1="654.47095" x2="505.0239" y2="685.5267" style="stroke:black;stroke-width:0.3" />
<circle cx="505.30716" cy="709.96686" r="1" stroke="black" fill="black" />
<line x1="505.0239" y1="685.5267" x2="505.30716" y2="709.96686" style="stroke:black;stroke-width:0.3" />
<circle cx="485.16446" cy="709.1056" r="1" stroke="black" fill="black" />
<line x1="505.30716" y1="709.96686" x2="485.16446" y2="709.1056" style="stroke:black;stroke-width:0.3" />
<circle cx="497.64667" cy="754.5367" r="1" stroke="black" fill="black" />
<line x1="485.16446" y1="709.1056" x2="497.64667" y2="754.5367" style="stroke:black;stroke-width:0.3" />
<circle cx="529.42377" cy="741.8839" r="1" stroke="black" fill="black" />
<line x1="497.64667" y1="754.5367" x2="529.42377" y2="741.8839" style="stroke:black;stroke-width:0.3" />
<circle cx="533.6809" cy="765.1757" r="1" stroke="black" fill="black" />
<line x1="529.42377" y1="741.8839" x2="533.6809" y2="765.1757" style="stroke:black;stroke-width:0.3" />
<circle cx="544.4614" cy="772.0783" r="1" stroke="black" fill="black" />
<line x1="533.6809" y1="765.1757" x2="544.4614" y2="772.0783" style="stroke:black;stroke-width:0.3" />
<circle cx="549.2852" cy="763.45306" r="1" stroke="black" fill="black" />
<line x1="544.4614" y1="772.0783" x2="549.2852" y2="763.45306" style="stroke:black;stroke-width:0.3" />
<circle cx="555.81055" cy="780.70355" r="1" stroke="black" fill="black" />
<line x1="549.2852" y1="763.45306" x2="555.81055" y2="780.70355" style="stroke:black;stroke-width:0.3" />
<circle cx="554.1089" cy="788.46747" r="1" stroke="black" fill="black" />
<line x1="555.81055" y1="780.70355" x2="554.1089" y2="788.46747" style="stroke:black;stroke-width:0.3" />
<circle cx="549.85175" cy="793.64343" r="1" stroke="black" fill="black" />
<line x1="554.1089" y1="788.46747" x2="549.85175" y2="793.64343" style="stroke:black;stroke-width:0.3" />
<circle cx="549.2852" cy="794.5088" r="1" stroke="black" fill="black" />
<line x1="549.85175" y1="793.64343" x2="549.2852" y2="794.5088" style="stroke:black;stroke-width:0.3" />
<circle cx="546.4484" cy="793.64343" r="1" stroke="black" fill="black" />
<line x1="549.2852" y1="794.5088" x2="546.4484" y2="793.64343" style="stroke:black;stroke-width:0.3" />
<circle cx="544.17816" cy="795.3701" r="1" stroke="black" fill="black" />
<line x1="546.4484" y1="793.64343" x2="544.17816" y2="795.3701" style="stroke:black;stroke-width:0.3" />
<circle cx="538.7879" cy="793.93054" r="1" stroke="black" fill="black" />
<line x1="544.17816" y1="795.3701" x2="538.7879" y2="793.93054" style="stroke:black;stroke-width:0.3" />
<circle cx="533.3956" cy="793.0692" r="1" stroke="black" fill="black" />
<line x1="538.7879" y1="793.93054" x2="533.3956" y2="793.0692" style="stroke:black;stroke-width:0.3" />
<circle cx="533.6809" cy="783.00446" r="1" stroke="black" fill="black" />
<line x1="533.3956" y1="793.0692" x2="533.6809" y2="783.00446" style="stroke:black;stroke-width:0.3" />
<circle cx="541.34143" cy="785.5924" r="1" stroke="black" fill="black" />
<line x1="533.6809" y1="783.00446" x2="541.34143" y2="785.5924" style="stroke:black;stroke-width:0.3" />
<circle cx="550.70355" cy="798.2452" r="1" stroke="black" fill="black" />
<line x1="541.34143" y1="785.5924" x2="550.70355" y2="798.2452" style="stroke:black;stroke-width:0.3" />
<circle cx="551.2701" cy="807.44867" r="1" stroke="black" fill="black" />
<line x1="550.70355" y1="798.2452" x2="551.2701" y2="807.44867" style="stroke:black;stroke-width:0.3" />
<circle cx="546.7317" cy="807.44867" r="1" stroke="black" fill="black" />
<line x1="551.2701" y1="807.44867" x2="546.7317" y2="807.44867" style="stroke:black;stroke-width:0.3" />
<circle cx="540.2063" cy="808.5971" r="1" stroke="black" fill="black" />
<line x1="546.7317" y1="807.44867" x2="540.2063" y2="808.5971" style="stroke:black;stroke-width:0.3" />
<circle cx="541.34143" cy="801.9856" r="1" stroke="black" fill="black" />
<line x1="540.2063" y1="808.5971" x2="541.34143" y2="801.9856" style="stroke:black;stroke-width:0.3" />
<circle cx="528.5739" cy="806.0091" r="1" stroke="black" fill="black" />
<line x1="541.34143" y1="801.9856" x2="528.5739" y2="806.0091" style="stroke:black;stroke-width:0.3" />
<circle cx="516.373" cy="810.61084" r="1" stroke="black" fill="black" />
<line x1="528.5739" y1="806.0091" x2="516.373" y2="810.61084" style="stroke:black;stroke-width:0.3" />
<circle cx="514.9546" cy="820.38855" r="1" stroke="black" fill="black" />
<line x1="516.373" y1="810.61084" x2="514.9546" y2="820.38855" style="stroke:black;stroke-width:0.3" />
<circle cx="516.373" cy="795.6572" r="1" stroke="black" fill="black" />
<line x1="514.9546" y1="820.38855" x2="516.373" y2="795.6572" style="stroke:black;stroke-width:0.3" />
<circle cx="526.30365" cy="776.10583" r="1" stroke="black" fill="black" />
<line x1="516.373" y1="795.6572" x2="526.30365" y2="776.10583" style="stroke:black;stroke-width:0.3" />
<circle cx="570.565" cy="767.18945" r="1" stroke="black" fill="black" />
<line x1="526.30365" y1="776.10583" x2="570.565" y2="767.18945" style="stroke:black;stroke-width:0.3" />
<circle cx="586.4525" cy="767.18945" r="1" stroke="black" fill="black" />
<line x1="570.565" y1="767.18945" x2="586.4525" y2="767.18945" style="stroke:black;stroke-width:0.3" />
<circle cx="584.4656" cy="754.5367" r="1" stroke="black" fill="black" />
<line x1="586.4525" y1="767.18945" x2="584.4656" y2="754.5367" style="stroke:black;stroke-width:0.3" />
<circle cx="606.31396" cy="766.90234" r="1" stroke="black" fill="black" />
<line x1="584.4656" y1="754.5367" x2="606.31396" y2="766.90234" style="stroke:black;stroke-width:0.3" />
<circle cx="589.2893" cy="728.08276" r="1" stroke="black" fill="black" />
<line x1="606.31396" y1="766.90234" x2="589.2893" y2="728.08276" style="stroke:black;stroke-width:0.3" />
<circle cx="579.0753" cy="695.5874" r="1" stroke="black" fill="black" />
<line x1="589.2893" y1="728.08276" x2="579.0753" y2="695.5874" style="stroke:black;stroke-width:0.3" />
<circle cx="601.7735" cy="681.49915" r="1" stroke="black" fill="black" />
<line x1="579.0753" y1="695.5874" x2="601.7735" y2="681.49915" style="stroke:black;stroke-width:0.3" />
<circle cx="639.5094" cy="693.57776" r="1" stroke="black" fill="black" />
<line x1="601.7735" y1="681.49915" x2="639.5094" y2="693.57776" style="stroke:black;stroke-width:0.3" />
<circle cx="662.49084" cy="678.9112" r="1" stroke="black" fill="black" />
<line x1="639.5094" y1="693.57776" x2="662.49084" y2="678.9112" style="stroke:black;stroke-width:0.3" />
<circle cx="665.6109" cy="681.49915" r="1" stroke="black" fill="black" />
<line x1="662.49084" y1="678.9112" x2="665.6109" y2="681.49915" style="stroke:black;stroke-width:0.3" />
<circle cx="682.9189" cy="659.6469" r="1" stroke="black" fill="black" />
<line x1="665.6109" y1="681.49915" x2="682.9189" y2="659.6469" style="stroke:black;stroke-width:0.3" />
<circle cx="707.3187" cy="632.9018" r="1" stroke="black" fill="black" />
<line x1="682.9189" y1="659.6469" x2="707.3187" y2="632.9018" style="stroke:black;stroke-width:0.3" />
<circle cx="736.82556" cy="653.0314" r="1" stroke="black" fill="black" />
<line x1="707.3187" y1="632.9018" x2="736.82556" y2="653.0314" style="stroke:black;stroke-width:0.3" />
<circle cx="750.7282" cy="638.3648" r="1" stroke="black" fill="black" />
<line x1="736.82556" y1="653.0314" x2="750.7282" y2="638.3648" style="stroke:black;stroke-width:0.3" />
<circle cx="758.1034" cy="628.30005" r="1" stroke="black" fill="black" />
<line x1="750.7282" y1="638.3648" x2="758.1034" y2="628.30005" style="stroke:black;stroke-width:0.3" />
<circle cx="745.33594" cy="616.79974" r="1" stroke="black" fill="black" />
<line x1="758.1034" y1="628.30005" x2="745.33594" y2="616.79974" style="stroke:black;stroke-width:0.3" />
<circle cx="759.80707" cy="655.90643" r="1" stroke="black" fill="black" />
<line x1="745.33594" y1="616.79974" x2="759.80707" y2="655.90643" style="stroke:black;stroke-width:0.3" />
<circle cx="807.4717" cy="664.2446" r="1" stroke="black" fill="black" />
<line x1="759.80707" y1="655.90643" x2="807.4717" y2="664.2446" style="stroke:black;stroke-width:0.3" />
<circle cx="814.56555" cy="642.6795" r="1" stroke="black" fill="black" />
<line x1="807.4717" y1="664.2446" x2="814.56555" y2="642.6795" style="stroke:black;stroke-width:0.3" />
<circle cx="818.53754" cy="688.6889" r="1" stroke="black" fill="black" />
<line x1="814.56555" y1="642.6795" x2="818.53754" y2="688.6889" style="stroke:black;stroke-width:0.3" />
<circle cx="818.8208" cy="690.1244" r="1" stroke="black" fill="black" />
<line x1="818.53754" y1="688.6889" x2="818.8208" y2="690.1244" style="stroke:black;stroke-width:0.3" />
<circle cx="836.12866" cy="743.3235" r="1" stroke="black" fill="black" />
<line x1="818.8208" y1="690.1244" x2="836.12866" y2="743.3235" style="stroke:black;stroke-width:0.3" />
<circle cx="844.0724" cy="745.0501" r="1" stroke="black" fill="black" />
<line x1="836.12866" y1="743.3235" x2="844.0724" y2="745.0501" style="stroke:black;stroke-width:0.3" />
<circle cx="880.38794" cy="733.5458" r="1" stroke="black" fill="black" />
<line x1="844.0724" y1="745.0501" x2="880.38794" y2="733.5458" style="stroke:black;stroke-width:0.3" />
<circle cx="892.87213" cy="711.98065" r="1" stroke="black" fill="black" />
<line x1="880.38794" y1="733.5458" x2="892.87213" y2="711.98065" style="stroke:black;stroke-width:0.3" />
<circle cx="916.7055" cy="707.3789" r="1" stroke="black" fill="black" />
<line x1="892.87213" y1="711.98065" x2="916.7055" y2="707.3789" style="stroke:black;stroke-width:0.3" />
<circle cx="958.128" cy="726.9343" r="1" stroke="black" fill="black" />
<line x1="916.7055" y1="707.3789" x2="958.128" y2="726.9343" style="stroke:black;stroke-width:0.3" />
<circle cx="955.5745" cy="765.1757" r="1" stroke="black" fill="black" />
<line x1="958.128" y1="726.9343" x2="955.5745" y2="765.1757" style="stroke:black;stroke-width:0.3" />
<circle cx="1007.4963" cy="808.31" r="1" stroke="black" fill="black" />
<line x1="955.5745" y1="765.1757" x2="1007.4963" y2="808.31" style="stroke:black;stroke-width:0.3" />
<circle cx="972.8824" cy="846.8425" r="1" stroke="black" fill="black" />
<line x1="1007.4963" y1="808.31" x2="972.8824" y2="846.8425" style="stroke:black;stroke-width:0.3" />
<circle cx="980.54285" cy="854.0322" r="1" stroke="black" fill="black" />
<line x1="972.8824" y1="846.8425" x2="980.54285" y2="854.0322" style="stroke:black;stroke-width:0.3" />
<circle cx="1045.7987" cy="741.8839" r="1" stroke="black" fill="black" />
<line x1="980.54285" y1="854.0322" x2="1045.7987" y2="741.8839" style="stroke:black;stroke-width:0.3" />
<circle cx="1052.8906" cy="707.0918" r="1" stroke="black" fill="black" />
<line x1="1045.7987" y1="741.8839" x2="1052.8906" y2="707.0918" style="stroke:black;stroke-width:0.3" />
<circle cx="1024.2357" cy="706.5176" r="1" stroke="black" fill="black" />
<line x1="1052.8906" y1="707.0918" x2="1024.2357" y2="706.5176" style="stroke:black;stroke-width:0.3" />
<circle cx="1031.6128" cy="651.30475" r="1" stroke="black" fill="black" />
<line x1="1024.2357" y1="706.5176" x2="1031.6128" y2="651.30475" style="stroke:black;stroke-width:0.3" />
<circle cx="1067.3618" cy="665.3971" r="1" stroke="black" fill="black" />
<line x1="1031.6128" y1="651.30475" x2="1067.3618" y2="665.3971" style="stroke:black;stroke-width:0.3" />
<circle cx="1132.9009" cy="698.4666" r="1" stroke="black" fill="black" />
<line x1="1067.3618" y1="665.3971" x2="1132.9009" y2="698.4666" style="stroke:black;stroke-width:0.3" />
<circle cx="1114.1746" cy="723.1939" r="1" stroke="black" fill="black" />
<line x1="1132.9009" y1="698.4666" x2="1114.1746" y2="723.1939" style="stroke:black;stroke-width:0.3" />
<circle cx="1164.1095" cy="641.5311" r="1" stroke="black" fill="black" />
<line x1="1114.1746" y1="723.1939" x2="1164.1095" y2="641.5311" style="stroke:black;stroke-width:0.3" />
<circle cx="1147.6554" cy="608.74866" r="1" stroke="black" fill="black" />
<line x1="1164.1095" y1="641.5311" x2="1147.6554" y2="608.74866" style="stroke:black;stroke-width:0.3" />
<circle cx="1132.9009" cy="550.9519" r="1" stroke="black" fill="black" />
<line x1="1147.6554" y1="608.74866" x2="1132.9009" y2="550.9519" style="stroke:black;stroke-width:0.3" />
<circle cx="1148.2219" cy="508.96603" r="1" stroke="black" fill="black" />
<line x1="1132.9009" y1="550.9519" x2="1148.2219" y2="508.96603" style="stroke:black;stroke-width:0.3" />
<circle cx="1156.7343" cy="470.7246" r="1" stroke="black" fill="black" />
<line x1="1148.2219" y1="508.96603" x2="1156.7343" y2="470.7246" style="stroke:black;stroke-width:0.3" />
<circle cx="1143.3982" cy="454.33142" r="1" stroke="black" fill="black" />
<line x1="1156.7343" y1="470.7246" x2="1143.3982" y2="454.33142" style="stroke:black;stroke-width:0.3" />
<circle cx="1122.9702" cy="454.61853" r="1" stroke="black" fill="black" />
<line x1="1143.3982" y1="454.33142" x2="1122.9702" y2="454.61853" style="stroke:black;stroke-width:0.3" />
<circle cx="1159.0024" cy="433.3405" r="1" stroke="black" fill="black" />
<line x1="1122.9702" y1="454.61853" x2="1159.0024" y2="433.3405" style="stroke:black;stroke-width:0.3" />
<circle cx="1180.5656" cy="450.30792" r="1" stroke="black" fill="black" />
<line x1="1159.0024" y1="433.3405" x2="1180.5656" y2="450.30792" style="stroke:black;stroke-width:0.3" />
<circle cx="1104.5292" cy="495.4519" r="1" stroke="black" fill="black" />
<line x1="1180.5656" y1="450.30792" x2="1104.5292" y2="495.4519" style="stroke:black;stroke-width:0.3" />
<circle cx="1098.2871" cy="399.4097" r="1" stroke="black" fill="black" />
<line x1="1104.5292" y1="495.4519" x2="1098.2871" y2="399.4097" style="stroke:black;stroke-width:0.3" />
<circle cx="1091.1931" cy="379.5672" r="1" stroke="black" fill="black" />
<line x1="1098.2871" y1="399.4097" x2="1091.1931" y2="379.5672" style="stroke:black;stroke-width:0.3" />
<circle cx="1108.2178" cy="316.30734" r="1" stroke="black" fill="black" />
<line x1="1091.1931" y1="379.5672" x2="1108.2178" y2="316.30734" style="stroke:black;stroke-width:0.3" />
<circle cx="1132.0491" cy="327.80765" r="1" stroke="black" fill="black" />
<line x1="1108.2178" y1="316.30734" x2="1132.0491" y2="327.80765" style="stroke:black;stroke-width:0.3" />
<circle cx="1142.2631" cy="310.5572" r="1" stroke="black" fill="black" />
<line x1="1132.0491" y1="327.80765" x2="1142.2631" y2="310.5572" style="stroke:black;stroke-width:0.3" />
<circle cx="1125.2405" cy="276.04816" r="1" stroke="black" fill="black" />
<line x1="1142.2631" y1="310.5572" x2="1125.2405" y2="276.04816" style="stroke:black;stroke-width:0.3" />
<circle cx="1101.4071" cy="286.9783" r="1" stroke="black" fill="black" />
<line x1="1125.2405" y1="276.04816" x2="1101.4071" y2="286.9783" style="stroke:black;stroke-width:0.3" />
<circle cx="1082.6829" cy="304.22876" r="1" stroke="black" fill="black" />
<line x1="1101.4071" y1="286.9783" x2="1082.6829" y2="304.22876" style="stroke:black;stroke-width:0.3" />
<circle cx="1049.4874" cy="265.40912" r="1" stroke="black" fill="black" />
<line x1="1082.6829" y1="304.22876" x2="1049.4874" y2="265.40912" style="stroke:black;stroke-width:0.3" />
<circle cx="1038.7048" cy="261.95984" r="1" stroke="black" fill="black" />
<line x1="1049.4874" y1="265.40912" x2="1038.7048" y2="261.95984" style="stroke:black;stroke-width:0.3" />
<circle cx="995.5786" cy="245.85777" r="1" stroke="black" fill="black" />
<line x1="1038.7048" y1="261.95984" x2="995.5786" y2="245.85777" style="stroke:black;stroke-width:0.3" />
<circle cx="989.0533" cy="293.30264" r="1" stroke="black" fill="black" />
<line x1="995.5786" y1="245.85777" x2="989.0533" y2="293.30264" style="stroke:black;stroke-width:0.3" />
<circle cx="989.905" cy="301.3537" r="1" stroke="black" fill="black" />
<line x1="989.0533" y1="293.30264" x2="989.905" y2="301.3537" style="stroke:black;stroke-width:0.3" />
<circle cx="879.5381" cy="337.01117" r="1" stroke="black" fill="black" />
<line x1="989.905" y1="301.3537" x2="879.5381" y2="337.01117" style="stroke:black;stroke-width:0.3" />
<circle cx="855.1363" cy="398.2613" r="1" stroke="black" fill="black" />
<line x1="879.5381" y1="337.01117" x2="855.1363" y2="398.2613" style="stroke:black;stroke-width:0.3" />
<circle cx="829.31805" cy="405.73404" r="1" stroke="black" fill="black" />
<line x1="855.1363" y1="398.2613" x2="829.31805" y2="405.73404" style="stroke:black;stroke-width:0.3" />
<circle cx="778.5314" cy="492.28973" r="1" stroke="black" fill="black" />
<line x1="829.31805" y1="405.73404" x2="778.5314" y2="492.28973" style="stroke:black;stroke-width:0.3" />
<circle cx="800.3797" cy="556.702" r="1" stroke="black" fill="black" />
<line x1="778.5314" y1="492.28973" x2="800.3797" y2="556.702" style="stroke:black;stroke-width:0.3" />
<circle cx="726.043" cy="569.3548" r="1" stroke="black" fill="black" />
<line x1="800.3797" y1="556.702" x2="726.043" y2="569.3548" style="stroke:black;stroke-width:0.3" />
<circle cx="642.9127" cy="546.63727" r="1" stroke="black" fill="black" />
<line x1="726.043" y1="569.3548" x2="642.9127" y2="546.63727" style="stroke:black;stroke-width:0.3" />
<circle cx="628.44354" cy="532.5449" r="1" stroke="black" fill="black" />
<line x1="642.9127" y1="546.63727" x2="628.44354" y2="532.5449" style="stroke:black;stroke-width:0.3" />
<circle cx="604.89355" cy="545.4848" r="1" stroke="black" fill="black" />
<line x1="628.44354" y1="532.5449" x2="604.89355" y2="545.4848" style="stroke:black;stroke-width:0.3" />
<circle cx="623.6199" cy="586.89246" r="1" stroke="black" fill="black" />
<line x1="604.89355" y1="545.4848" x2="623.6199" y2="586.89246" style="stroke:black;stroke-width:0.3" />
<circle cx="590.7077" cy="604.1469" r="1" stroke="black" fill="black" />
<line x1="623.6199" y1="586.89246" x2="590.7077" y2="604.1469" style="stroke:black;stroke-width:0.3" />
<circle cx="564.3229" cy="649.8692" r="1" stroke="black" fill="black" />
<line x1="590.7077" y1="604.1469" x2="564.3229" y2="649.8692" style="stroke:black;stroke-width:0.3" />
<circle cx="555.24396" cy="680.9249" r="1" stroke="black" fill="black" />
<line x1="564.3229" y1="649.8692" x2="555.24396" y2="680.9249" style="stroke:black;stroke-width:0.3" />
<circle cx="542.1912" cy="702.77716" r="1" stroke="black" fill="black" />
<line x1="555.24396" y1="680.9249" x2="542.1912" y2="702.77716" style="stroke:black;stroke-width:0.3" />
<circle cx="547.8668" cy="816.361" r="1" stroke="black" fill="black" />
<line x1="542.1912" y1="702.77716" x2="547.8668" y2="816.361" style="stroke:black;stroke-width:0.3" />
<circle cx="472.9635" cy="882.5" r="1" stroke="black" fill="black" />
<line x1="547.8668" y1="816.361" x2="472.9635" y2="882.5" style="stroke:black;stroke-width:0.3" />
<circle cx="428.41898" cy="869.8472" r="1" stroke="black" fill="black" />
<line x1="472.9635" y1="882.5" x2="428.41898" y2="869.8472" style="stroke:black;stroke-width:0.3" />
<circle cx="411.11307" cy="798.2452" r="1" stroke="black" fill="black" />
<line x1="428.41898" y1="869.8472" x2="411.11307" y2="798.2452" style="stroke:black;stroke-width:0.3" />
<circle cx="362.5966" cy="781.5689" r="1" stroke="black" fill="black" />
<line x1="411.11307" y1="798.2452" x2="362.5966" y2="781.5689" style="stroke:black;stroke-width:0.3" />
<circle cx="359.19128" cy="776.39294" r="1" stroke="black" fill="black" />
<line x1="362.5966" y1="781.5689" x2="359.19128" y2="776.39294" style="stroke:black;stroke-width:0.3" />
<circle cx="253.0795" cy="809.7496" r="1" stroke="black" fill="black" />
<line x1="359.19128" y1="776.39294" x2="253.0795" y2="809.7496" style="stroke:black;stroke-width:0.3" />
<circle cx="80.576805" cy="650.1563" r="1" stroke="black" fill="black" />
<line x1="253.0795" y1="809.7496" x2="80.576805" y2="650.1563" style="stroke:black;stroke-width:0.3" />
<circle cx="10.780546" cy="460.9469" r="1" stroke="black" fill="black" />
<line x1="80.576805" y1="650.1563" x2="10.780546" y2="460.9469" style="stroke:black;stroke-width:0.3" />
<circle cx="159.45193" cy="422.70148" r="1" stroke="black" fill="black" />
<line x1="10.780546" y1="460.9469" x2="159.45193" y2="422.70148" style="stroke:black;stroke-width:0.3" />
<circle cx="288.5452" cy="526.5076" r="1" stroke="black" fill="black" />
<line x1="159.45193" y1="422.70148" x2="288.5452" y2="526.5076" style="stroke:black;stroke-width:0.3" />
<circle cx="496.2283" cy="451.74344" r="1" stroke="black" fill="black" />
<line x1="288.5452" y1="526.5076" x2="496.2283" y2="451.74344" style="stroke:black;stroke-width:0.3" />
<circle cx="486.01428" cy="422.1273" r="1" stroke="black" fill="black" />
<line x1="496.2283" y1="451.74344" x2="486.01428" y2="422.1273" style="stroke:black;stroke-width:0.3" />
<circle cx="603.47516" cy="420.97482" r="1" stroke="black" fill="black" />
<line x1="486.01428" y1="422.1273" x2="603.47516" y2="420.97482" style="stroke:black;stroke-width:0.3" />
<circle cx="633.55054" cy="475.9006" r="1" stroke="black" fill="black" />
<line x1="603.47516" y1="420.97482" x2="633.55054" y2="475.9006" style="stroke:black;stroke-width:0.3" />
<circle cx="665.6109" cy="431.32672" r="1" stroke="black" fill="black" />
<line x1="633.55054" y1="475.9006" x2="665.6109" y2="431.32672" style="stroke:black;stroke-width:0.3" />
<circle cx="699.6582" cy="469.28506" r="1" stroke="black" fill="black" />
<line x1="665.6109" y1="431.32672" x2="699.6582" y2="469.28506" style="stroke:black;stroke-width:0.3" />
<circle cx="670.43463" cy="317.16867" r="1" stroke="black" fill="black" />
<line x1="699.6582" y1="469.28506" x2="670.43463" y2="317.16867" style="stroke:black;stroke-width:0.3" />
<circle cx="575.672" cy="244.7053" r="1" stroke="black" fill="black" />
<line x1="670.43463" y1="317.16867" x2="575.672" y2="244.7053" style="stroke:black;stroke-width:0.3" />
<circle cx="562.0526" cy="243.2698" r="1" stroke="black" fill="black" />
<line x1="575.672" y1="244.7053" x2="562.0526" y2="243.2698" style="stroke:black;stroke-width:0.3" />
<circle cx="529.42377" cy="209.6261" r="1" stroke="black" fill="black" />
<line x1="562.0526" y1="243.2698" x2="529.42377" y2="209.6261" style="stroke:black;stroke-width:0.3" />
<circle cx="577.6569" cy="120.76955" r="1" stroke="black" fill="black" />
<line x1="529.42377" y1="209.6261" x2="577.6569" y2="120.76955" style="stroke:black;stroke-width:0.3" />
<circle cx="580.49365" cy="0.0" r="1" stroke="black" fill="black" />
<line x1="577.6569" y1="120.76955" x2="580.49365" y2="0.0" style="stroke:black;stroke-width:0.3" />
<circle cx="685.47235" cy="27.88949" r="1" stroke="black" fill="black" />
<line x1="580.49365" y1="0.0" x2="685.47235" y2="27.88949" style="stroke:black;stroke-width:0.3" />
<circle cx="695.9696" cy="19.838459" r="1" stroke="black" fill="black" />
<line x1="685.47235" y1="27.88949" x2="695.9696" y2="19.838459" style="stroke:black;stroke-width:0.3" />
<circle cx="762.6438" cy="82.81525" r="1" stroke="black" fill="black" />
<line x1="695.9696" y1="19.838459" x2="762.6438" y2="82.81525" style="stroke:black;stroke-width:0.3" />
<circle cx="718.0993" cy="163.90382" r="1" stroke="black" fill="black" />
<line x1="762.6438" y1="82.81525" x2="718.0993" y2="163.90382" style="stroke:black;stroke-width:0.3" />
<circle cx="747.8894" cy="178.28328" r="1" stroke="black" fill="black" />
<line x1="718.0993" y1="163.90382" x2="747.8894" y2="178.28328" style="stroke:black;stroke-width:0.3" />
<circle cx="762.6438" cy="205.59856" r="1" stroke="black" fill="black" />
<line x1="747.8894" y1="178.28328" x2="762.6438" y2="205.59856" style="stroke:black;stroke-width:0.3" />
<circle cx="768.6026" cy="221.41351" r="1" stroke="black" fill="black" />
<line x1="762.6438" y1="205.59856" x2="768.6026" y2="221.41351" style="stroke:black;stroke-width:0.3" />
<circle cx="801.7981" cy="217.96423" r="1" stroke="black" fill="black" />
<line x1="768.6026" y1="221.41351" x2="801.7981" y2="217.96423" style="stroke:black;stroke-width:0.3" />
<circle cx="836.69525" cy="198.98709" r="1" stroke="black" fill="black" />
<line x1="801.7981" y1="217.96423" x2="836.69525" y2="198.98709" style="stroke:black;stroke-width:0.3" />
<circle cx="711.0073" cy="198.40883" r="1" stroke="black" fill="black" />
<line x1="836.69525" y1="198.98709" x2="711.0073" y2="198.40883" style="stroke:black;stroke-width:0.3" />
<circle cx="475.8003" cy="41.98183" r="1" stroke="black" fill="black" />
<line x1="711.0073" y1="198.40883" x2="475.8003" y2="41.98183" style="stroke:black;stroke-width:0.3" />
<circle cx="1025.0874" cy="159.5892" r="1" stroke="black" fill="black" />
<line x1="475.8003" y1="41.98183" x2="1025.0874" y2="159.5892" style="stroke:black;stroke-width:0.3" />
<circle cx="1176.3103" cy="241.54314" r="1" stroke="black" fill="black" />
<line x1="1025.0874" y1="159.5892" x2="1176.3103" y2="241.54314" style="stroke:black;stroke-width:0.3" />
<circle cx="1227.3802" cy="310.5572" r="1" stroke="black" fill="black" />
<line x1="1176.3103" y1="241.54314" x2="1227.3802" y2="310.5572" style="stroke:black;stroke-width:0.3" />
<circle cx="1235.3241" cy="319.46954" r="1" stroke="black" fill="black" />
<line x1="1227.3802" y1="310.5572" x2="1235.3241" y2="319.46954" style="stroke:black;stroke-width:0.3" />
<circle cx="1235.8926" cy="344.48798" r="1" stroke="black" fill="black" />
<line x1="1235.3241" y1="319.46954" x2="1235.8926" y2="344.48798" style="stroke:black;stroke-width:0.3" />
<circle cx="1287.2458" cy="328.0948" r="1" stroke="black" fill="black" />
<line x1="1235.8926" y1="344.48798" x2="1287.2458" y2="328.0948" style="stroke:black;stroke-width:0.3" />
<circle cx="1312.4976" cy="362.3167" r="1" stroke="black" fill="black" />
<line x1="1287.2458" y1="328.0948" x2="1312.4976" y2="362.3167" style="stroke:black;stroke-width:0.3" />
<circle cx="1330.0868" cy="382.15515" r="1" stroke="black" fill="black" />
<line x1="1312.4976" y1="362.3167" x2="1330.0868" y2="382.15515" style="stroke:black;stroke-width:0.3" />
<circle cx="1312.7808" cy="411.20117" r="1" stroke="black" fill="black" />
<line x1="1330.0868" y1="382.15515" x2="1312.7808" y2="411.20117" style="stroke:black;stroke-width:0.3" />
<circle cx="1312.4976" cy="414.07623" r="1" stroke="black" fill="black" />
<line x1="1312.7808" y1="411.20117" x2="1312.4976" y2="414.07623" style="stroke:black;stroke-width:0.3" />
<circle cx="1312.7808" cy="448.86838" r="1" stroke="black" fill="black" />
<line x1="1312.4976" y1="414.07623" x2="1312.7808" y2="448.86838" style="stroke:black;stroke-width:0.3" />
<circle cx="1357.3253" cy="471.58594" r="1" stroke="black" fill="black" />
<line x1="1312.7808" y1="448.86838" x2="1357.3253" y2="471.58594" style="stroke:black;stroke-width:0.3" />
<circle cx="1347.1113" cy="509.2531" r="1" stroke="black" fill="black" />
<line x1="1357.3253" y1="471.58594" x2="1347.1113" y2="509.2531" style="stroke:black;stroke-width:0.3" />
<circle cx="1329.5203" cy="500.34076" r="1" stroke="black" fill="black" />
<line x1="1347.1113" y1="509.2531" x2="1329.5203" y2="500.34076" style="stroke:black;stroke-width:0.3" />
<circle cx="1329.8035" cy="549.5123" r="1" stroke="black" fill="black" />
<line x1="1329.5203" y1="500.34076" x2="1329.8035" y2="549.5123" style="stroke:black;stroke-width:0.3" />
<circle cx="1334.6272" cy="568.77655" r="1" stroke="black" fill="black" />
<line x1="1329.8035" y1="549.5123" x2="1334.6272" y2="568.77655" style="stroke:black;stroke-width:0.3" />
<circle cx="1295.4729" cy="586.6053" r="1" stroke="black" fill="black" />
<line x1="1334.6272" y1="568.77655" x2="1295.4729" y2="586.6053" style="stroke:black;stroke-width:0.3" />
<circle cx="1261.7109" cy="581.1423" r="1" stroke="black" fill="black" />
<line x1="1295.4729" y1="586.6053" x2="1261.7109" y2="581.1423" style="stroke:black;stroke-width:0.3" />
<circle cx="1278.7335" cy="546.35016" r="1" stroke="black" fill="black" />
<line x1="1261.7109" y1="581.1423" x2="1278.7335" y2="546.35016" style="stroke:black;stroke-width:0.3" />
<circle cx="1244.403" cy="534.84576" r="1" stroke="black" fill="black" />
<line x1="1278.7335" y1="546.35016" x2="1244.403" y2="534.84576" style="stroke:black;stroke-width:0.3" />
<circle cx="1214.6128" cy="565.9015" r="1" stroke="black" fill="black" />
<line x1="1244.403" y1="534.84576" x2="1214.6128" y2="565.9015" style="stroke:black;stroke-width:0.3" />
<circle cx="1205.2507" cy="590.92" r="1" stroke="black" fill="black" />
<line x1="1214.6128" y1="565.9015" x2="1205.2507" y2="590.92" style="stroke:black;stroke-width:0.3" />
<circle cx="1229.082" cy="603.57275" r="1" stroke="black" fill="black" />
<line x1="1205.2507" y1="590.92" x2="1229.082" y2="603.57275" style="stroke:black;stroke-width:0.3" />
<circle cx="1261.4276" cy="655.6194" r="1" stroke="black" fill="black" />
<line x1="1229.082" y1="603.57275" x2="1261.4276" y2="655.6194" style="stroke:black;stroke-width:0.3" />
<circle cx="1300.58" cy="621.4014" r="1" stroke="black" fill="black" />
<line x1="1261.4276" y1="655.6194" x2="1300.58" y2="621.4014" style="stroke:black;stroke-width:0.3" />
<circle cx="1358.1752" cy="615.9384" r="1" stroke="black" fill="black" />
<line x1="1300.58" y1="621.4014" x2="1358.1752" y2="615.9384" style="stroke:black;stroke-width:0.3" />
<circle cx="1414.6375" cy="552.1003" r="1" stroke="black" fill="black" />
<line x1="1358.1752" y1="615.9384" x2="1414.6375" y2="552.1003" style="stroke:black;stroke-width:0.3" />
<circle cx="1388.8173" cy="494.87772" r="1" stroke="black" fill="black" />
<line x1="1414.6375" y1="552.1003" x2="1388.8173" y2="494.87772" style="stroke:black;stroke-width:0.3" />
<circle cx="1404.7068" cy="472.16016" r="1" stroke="black" fill="black" />
<line x1="1388.8173" y1="494.87772" x2="1404.7068" y2="472.16016" style="stroke:black;stroke-width:0.3" />
<circle cx="1397.6128" cy="465.83575" r="1" stroke="black" fill="black" />
<line x1="1404.7068" y1="472.16016" x2="1397.6128" y2="465.83575" style="stroke:black;stroke-width:0.3" />
<circle cx="1414.6375" cy="465.83575" r="1" stroke="black" fill="black" />
<line x1="1397.6128" y1="465.83575" x2="1414.6375" y2="465.83575" style="stroke:black;stroke-width:0.3" />
<circle cx="1404.7068" cy="416.6642" r="1" stroke="black" fill="black" />
<line x1="1414.6375" y1="465.83575" x2="1404.7068" y2="416.6642" style="stroke:black;stroke-width:0.3" />
<circle cx="1380.3069" cy="408.32205" r="1" stroke="black" fill="black" />
<line x1="1404.7068" y1="416.6642" x2="1380.3069" y2="408.32205" style="stroke:black;stroke-width:0.3" />
<circle cx="1363.8507" cy="393.94666" r="1" stroke="black" fill="black" />
<line x1="1380.3069" y1="408.32205" x2="1363.8507" y2="393.94666" style="stroke:black;stroke-width:0.3" />
<circle cx="1356.7568" cy="414.36334" r="1" stroke="black" fill="black" />
<line x1="1363.8507" y1="393.94666" x2="1356.7568" y2="414.36334" style="stroke:black;stroke-width:0.3" />
<circle cx="1354.7719" cy="328.0948" r="1" stroke="black" fill="black" />
<line x1="1356.7568" y1="414.36334" x2="1354.7719" y2="328.0948" style="stroke:black;stroke-width:0.3" />
<circle cx="1328.385" cy="300.49237" r="1" stroke="black" fill="black" />
<line x1="1354.7719" y1="328.0948" x2="1328.385" y2="300.49237" style="stroke:black;stroke-width:0.3" />
<circle cx="1431.9434" cy="353.40033" r="1" stroke="black" fill="black" />
<line x1="1328.385" y1="300.49237" x2="1431.9434" y2="353.40033" style="stroke:black;stroke-width:0.3" />
<circle cx="1221.9901" cy="713.99445" r="1" stroke="black" fill="black" />
<line x1="1431.9434" y1="353.40033" x2="1221.9901" y2="713.99445" style="stroke:black;stroke-width:0.3" />
<circle cx="920.96063" cy="626.86456" r="1" stroke="black" fill="black" />
<line x1="1221.9901" y1="713.99445" x2="920.96063" y2="626.86456" style="stroke:black;stroke-width:0.3" />
<circle cx="968.0588" cy="511.554" r="1" stroke="black" fill="black" />
<line x1="920.96063" y1="626.86456" x2="968.0588" y2="511.554" style="stroke:black;stroke-width:0.3" />
<circle cx="938.26855" cy="422.1273" r="1" stroke="black" fill="black" />
<line x1="968.0588" y1="511.554" x2="938.26855" y2="422.1273" style="stroke:black;stroke-width:0.3" />
<circle cx="765.1973" cy="743.8977" r="1" stroke="black" fill="black" />
<line x1="938.26855" y1="422.1273" x2="765.1973" y2="743.8977" style="stroke:black;stroke-width:0.3" />
<circle cx="682.9189" cy="715.42993" r="1" stroke="black" fill="black" />
<line x1="765.1973" y1="743.8977" x2="682.9189" y2="715.42993" style="stroke:black;stroke-width:0.3" />
<line x1="682.9189" y1="715.42993" x2="0.0" y2="75.91263" style="stroke:black;stroke-width:0.3" />
</svg>