<svg version="1.1" viewBox="0.0 0.0 6659.166.07296.667.0" width="6659.166" height="7296.667" fill="none" stroke="none" stroke-linecap="square" stroke-miterlimit="10" xmlns:xlink="http://www.w3.org/1999/xlink" xmlns="http://www.w3.org/2000/svg">
<circle cx="0.0" cy="7296.667" r="1" stroke="black" fill="black" />
<circle cx="66.967705" cy="7263.1953" r="1" stroke="black" fill="black" />
<line x1="0.0" y1="7296.667" x2="66.967705" y2="7263.1953" style="stroke:black;stroke-width:0.3" />
<circle cx="770.1355" cy="6694.19" r="1" stroke="black" fill="black" />
<line x1="66.967705" y1="7263.1953" x2="770.1355" y2="6694.19" style="stroke:black;stroke-width:0.3" />
<circle cx="770.1355" cy="5154.527" r="1" stroke="black" fill="black" />
<line x1="770.1355" y1="6694.19" x2="770.1355" y2="5154.527" style="stroke:black;stroke-width:0.3" />
<circle cx="770.1355" cy="4334.488" r="1" stroke="black" fill="black" />
<line x1="770.1355" y1="5154.527" x2="770.1355" y2="4334.488" style="stroke:black;stroke-width:0.3" />
<circle cx="1757.9196" cy="4485.1074" r="1" stroke="black" fill="black" />
<line x1="770.1355" y1="4334.488" x2="1757.9196" y2="4485.1074" style="stroke:black;stroke-width:0.3" />
<circle cx="1356.1094" cy="3313.6238" r="1" stroke="black" fill="black" />
<line x1="1757.9196" y1="4485.1074" x2="1356.1094" y2="3313.6238" style="stroke:black;stroke-width:0.3" />
<circle cx="1858.372" cy="2895.2378" r="1" stroke="black" fill="black" />
<line x1="1356.1094" y1="3313.6238" x2="1858.372" y2="2895.2378" style="stroke:black;stroke-width:0.3" />
<circle cx="468.7779" cy="3196.476" r="1" stroke="black" fill="black" />
<line x1="1858.372" y1="2895.2378" x2="468.7779" y2="3196.476" style="stroke:black;stroke-width:0.3" />
<circle cx="3348.4167" cy="3430.7725" r="1" stroke="black" fill="black" />
<line x1="468.7779" y1="3196.476" x2="3348.4167" y2="3430.7725" style="stroke:black;stroke-width:0.3" />
<circle cx="3063.8027" cy="4719.404" r="1" stroke="black" fill="black" />
<line x1="3348.4167" y1="3430.7725" x2="3063.8027" y2="4719.404" style="stroke:black;stroke-width:0.3" />
<circle cx="2795.9277" cy="6058.242" r="1" stroke="black" fill="black" />
<line x1="3063.8027" y1="4719.404" x2="2795.9277" y2="6058.242" style="stroke:black;stroke-width:0.3" />
<circle cx="2879.639" cy="6125.1836" r="1" stroke="black" fill="black" />
<line x1="2795.9277" y1="6058.242" x2="2879.639" y2="6125.1836" style="stroke:black;stroke-width:0.3" />
<circle cx="5323.985" cy="4685.933" r="1" stroke="black" fill="black" />
<line x1="2879.639" y1="6125.1836" x2="5323.985" y2="4685.933" style="stroke:black;stroke-width:0.3" />
<circle cx="5742.5366" cy="4033.2495" r="1" stroke="black" fill="black" />
<line x1="5323.985" y1="4685.933" x2="5742.5366" y2="4033.2495" style="stroke:black;stroke-width:0.3" />
<circle cx="5625.343" cy="3614.8623" r="1" stroke="black" fill="black" />
<line x1="5742.5366" y1="4033.2495" x2="5625.343" y2="3614.8623" style="stroke:black;stroke-width:0.3" />
<circle cx="6291.119" cy="3597.29" r="1" stroke="black" fill="black" />
<line x1="5625.343" y1="3614.8623" x2="6291.119" y2="3597.29" style="stroke:black;stroke-width:0.3" />
<circle cx="6348.8794" cy="3383.9128" r="1" stroke="black" fill="black" />
<line x1="6291.119" y1="3597.29" x2="6348.8794" y2="3383.9128" style="stroke:black;stroke-width:0.3" />
<circle cx="6220.8022" cy="3231.8992" r="1" stroke="black" fill="black" />
<line x1="6348.8794" y1="3383.9128" x2="6220.8022" y2="3231.8992" style="stroke:black;stroke-width:0.3" />
<circle cx="6659.166" cy="3171.9312" r="1" stroke="black" fill="black" />
<line x1="6220.8022" y1="3231.8992" x2="6659.166" y2="3171.9312" style="stroke:black;stroke-width:0.3" />
<circle cx="6629.868" cy="2577.2634" r="1" stroke="black" fill="black" />
<line x1="6659.166" y1="3171.9312" x2="6629.868" y2="2577.2634" style="stroke:black;stroke-width:0.3" />
<circle cx="6428.963" cy="1958.0504" r="1" stroke="black" fill="black" />
<line x1="6629.868" y1="2577.2634" x2="6428.963" y2="1958.0504" style="stroke:black;stroke-width:0.3" />
<circle cx="5926.7" cy="1857.6376" r="1" stroke="black" fill="black" />
<line x1="6428.963" y1="1958.0504" x2="5926.7" y2="1857.6376" style="stroke:black;stroke-width:0.3" />
<circle cx="5474.6636" cy="2945.444" r="1" stroke="black" fill="black" />
<line x1="5926.7" y1="1857.6376" x2="5474.6636" y2="2945.444" style="stroke:black;stroke-width:0.3" />
<circle cx="4335.3633" cy="2542.9553" r="1" stroke="black" fill="black" />
<line x1="5474.6636" y1="2945.444" x2="4335.3633" y2="2542.9553" style="stroke:black;stroke-width:0.3" />
<circle cx="5340.7266" cy="719.62573" r="1" stroke="black" fill="black" />
<line x1="4335.3633" y1="2542.9553" x2="5340.7266" y2="719.62573" style="stroke:black;stroke-width:0.3" />
<circle cx="6428.963" cy="619.2129" r="1" stroke="black" fill="black" />
<line x1="5340.7266" y1="719.62573" x2="6428.963" y2="619.2129" style="stroke:black;stroke-width:0.3" />
<circle cx="6462.446" cy="552.2706" r="1" stroke="black" fill="black" />
<line x1="6428.963" y1="619.2129" x2="6462.446" y2="552.2706" style="stroke:black;stroke-width:0.3" />
<circle cx="6361.993" cy="0.0" r="1" stroke="black" fill="black" />
<line x1="6462.446" y1="552.2706" x2="6361.993" y2="0.0" style="stroke:black;stroke-width:0.3" />
<line x1="6361.993" y1="0.0" x2="0.0" y2="7296.667" style="stroke:black;stroke-width:0.3" />
</svg>