<svg version="1.1" viewBox="0.0 0.0 134.5.0570.97003.0" width="134.5" height="570.97003" fill="none" stroke="none" stroke-linecap="square" stroke-miterlimit="10" xmlns:xlink="http://www.w3.org/1999/xlink" xmlns="http://www.w3.org/2000/svg">
<circle cx="0.6435408" cy="2.079248" r="1" stroke="black" fill="black" />
<circle cx="0.6435408" cy="2.079248" r="1" stroke="black" fill="black" />
<line x1="0.6435408" y1="2.079248" x2="0.6435408" y2="2.079248" style="stroke:black;stroke-width:0.3" />
<circle cx="1.4157894" cy="2.079248" r="1" stroke="black" fill="black" />
<line x1="0.6435408" y1="2.079248" x2="1.4157894" y2="2.079248" style="stroke:black;stroke-width:0.3" />
<circle cx="0.0" cy="1.868157" r="1" stroke="black" fill="black" />
<line x1="1.4157894" y1="2.079248" x2="0.0" y2="1.868157" style="stroke:black;stroke-width:0.3" />
<circle cx="0.6435408" cy="6.3010716" r="1" stroke="black" fill="black" />
<line x1="0.0" y1="1.868157" x2="0.6435408" y2="6.3010716" style="stroke:black;stroke-width:0.3" />
<circle cx="8.185837" cy="1.604293" r="1" stroke="black" fill="black" />
<line x1="0.6435408" y1="6.3010716" x2="8.185837" y2="1.604293" style="stroke:black;stroke-width:0.3" />
<circle cx="8.366029" cy="0.0" r="1" stroke="black" fill="black" />
<line x1="8.185837" y1="1.604293" x2="8.366029" y2="0.0" style="stroke:black;stroke-width:0.3" />
<circle cx="65.859955" cy="48.044353" r="1" stroke="black" fill="black" />
<line x1="8.366029" y1="0.0" x2="65.859955" y2="48.044353" style="stroke:black;stroke-width:0.3" />
<circle cx="63.29866" cy="50.144714" r="1" stroke="black" fill="black" />
<line x1="65.859955" y1="48.044353" x2="63.29866" y2="50.144714" style="stroke:black;stroke-width:0.3" />
<circle cx="63.285793" cy="50.144714" r="1" stroke="black" fill="black" />
<line x1="63.29866" y1="50.144714" x2="63.285793" y2="50.144714" style="stroke:black;stroke-width:0.3" />
<circle cx="128.06459" cy="569.9146" r="1" stroke="black" fill="black" />
<line x1="63.285793" y1="50.144714" x2="128.06459" y2="569.9146" style="stroke:black;stroke-width:0.3" />
<circle cx="134.5" cy="570.97003" r="1" stroke="black" fill="black" />
<line x1="128.06459" y1="569.9146" x2="134.5" y2="570.97003" style="stroke:black;stroke-width:0.3" />
<line x1="134.5" y1="570.97003" x2="0.6435408" y2="2.079248" style="stroke:black;stroke-width:0.3" />
</svg>