<svg version="1.1" viewBox="0.0 0.0 1671.3887.01549.4453.0" width="1671.3887" height="1549.4453" fill="none" stroke="none" stroke-linecap="square" stroke-miterlimit="10" xmlns:xlink="http://www.w3.org/1999/xlink" xmlns="http://www.w3.org/2000/svg">
<circle cx="0.0" cy="271.65024" r="1" stroke="black" fill="black" />
<circle cx="106.919106" cy="548.39923" r="1" stroke="black" fill="black" />
<line x1="0.0" y1="271.65024" x2="106.919106" y2="548.39923" style="stroke:black;stroke-width:0.3" />
<circle cx="155.00386" cy="893.6941" r="1" stroke="black" fill="black" />
<line x1="106.919106" y1="548.39923" x2="155.00386" y2="893.6941" style="stroke:black;stroke-width:0.3" />
<circle cx="132.09264" cy="1070.4485" r="1" stroke="black" fill="black" />
<line x1="155.00386" y1="893.6941" x2="132.09264" y2="1070.4485" style="stroke:black;stroke-width:0.3" />
<circle cx="183.00648" cy="1118.8862" r="1" stroke="black" fill="black" />
<line x1="132.09264" y1="1070.4485" x2="183.00648" y2="1118.8862" style="stroke:black;stroke-width:0.3" />
<circle cx="312.27103" cy="1114.9227" r="1" stroke="black" fill="black" />
<line x1="183.00648" y1="1118.8862" x2="312.27103" y2="1114.9227" style="stroke:black;stroke-width:0.3" />
<circle cx="299.26013" cy="1037.3068" r="1" stroke="black" fill="black" />
<line x1="312.27103" y1="1114.9227" x2="299.26013" y2="1037.3068" style="stroke:black;stroke-width:0.3" />
<circle cx="420.60516" cy="1169.8735" r="1" stroke="black" fill="black" />
<line x1="299.26013" y1="1037.3068" x2="420.60516" y2="1169.8735" style="stroke:black;stroke-width:0.3" />
<circle cx="427.95886" cy="1187.1533" r="1" stroke="black" fill="black" />
<line x1="420.60516" y1="1169.8735" x2="427.95886" y2="1187.1533" style="stroke:black;stroke-width:0.3" />
<circle cx="508.5728" cy="1039.2905" r="1" stroke="black" fill="black" />
<line x1="427.95886" y1="1187.1533" x2="508.5728" y2="1039.2905" style="stroke:black;stroke-width:0.3" />
<circle cx="528.0901" cy="1025.6952" r="1" stroke="black" fill="black" />
<line x1="508.5728" y1="1039.2905" x2="528.0901" y2="1025.6952" style="stroke:black;stroke-width:0.3" />
<circle cx="699.49976" cy="867.3521" r="1" stroke="black" fill="black" />
<line x1="528.0901" y1="1025.6952" x2="699.49976" y2="867.3521" style="stroke:black;stroke-width:0.3" />
<circle cx="780.6785" cy="831.9438" r="1" stroke="black" fill="black" />
<line x1="699.49976" y1="867.3521" x2="780.6785" y2="831.9438" style="stroke:black;stroke-width:0.3" />
<circle cx="834.13806" cy="854.03564" r="1" stroke="black" fill="black" />
<line x1="780.6785" y1="831.9438" x2="834.13806" y2="854.03564" style="stroke:black;stroke-width:0.3" />
<circle cx="858.74677" cy="840.72314" r="1" stroke="black" fill="black" />
<line x1="834.13806" y1="854.03564" x2="858.74677" y2="840.72314" style="stroke:black;stroke-width:0.3" />
<circle cx="761.1622" cy="997.6522" r="1" stroke="black" fill="black" />
<line x1="858.74677" y1="840.72314" x2="761.1622" y2="997.6522" style="stroke:black;stroke-width:0.3" />
<circle cx="795.9527" cy="1069.0343" r="1" stroke="black" fill="black" />
<line x1="761.1622" y1="997.6522" x2="795.9527" y2="1069.0343" style="stroke:black;stroke-width:0.3" />
<circle cx="987.16315" cy="1213.4954" r="1" stroke="black" fill="black" />
<line x1="795.9527" y1="1069.0343" x2="987.16315" y2="1213.4954" style="stroke:black;stroke-width:0.3" />
<circle cx="976.9803" cy="1483.1619" r="1" stroke="black" fill="black" />
<line x1="987.16315" y1="1213.4954" x2="976.9803" y2="1483.1619" style="stroke:black;stroke-width:0.3" />
<circle cx="1306.7887" cy="1549.4453" r="1" stroke="black" fill="black" />
<line x1="976.9803" y1="1483.1619" x2="1306.7887" y2="1549.4453" style="stroke:black;stroke-width:0.3" />
<circle cx="1408.3341" cy="1528.202" r="1" stroke="black" fill="black" />
<line x1="1306.7887" y1="1549.4453" x2="1408.3341" y2="1528.202" style="stroke:black;stroke-width:0.3" />
<circle cx="1384.5736" cy="1379.7734" r="1" stroke="black" fill="black" />
<line x1="1408.3341" y1="1528.202" x2="1384.5736" y2="1379.7734" style="stroke:black;stroke-width:0.3" />
<circle cx="1376.9365" cy="1346.349" r="1" stroke="black" fill="black" />
<line x1="1384.5736" y1="1379.7734" x2="1376.9365" y2="1346.349" style="stroke:black;stroke-width:0.3" />
<circle cx="1443.9738" cy="1080.363" r="1" stroke="black" fill="black" />
<line x1="1376.9365" y1="1346.349" x2="1443.9738" y2="1080.363" style="stroke:black;stroke-width:0.3" />
<circle cx="1394.1906" cy="892.56287" r="1" stroke="black" fill="black" />
<line x1="1443.9738" y1="1080.363" x2="1394.1906" y2="892.56287" style="stroke:black;stroke-width:0.3" />
<circle cx="1320.0831" cy="609.0143" r="1" stroke="black" fill="black" />
<line x1="1394.1906" y1="892.56287" x2="1320.0831" y2="609.0143" style="stroke:black;stroke-width:0.3" />
<circle cx="1166.7756" cy="654.05426" r="1" stroke="black" fill="black" />
<line x1="1320.0831" y1="609.0143" x2="1166.7756" y2="654.05426" style="stroke:black;stroke-width:0.3" />
<circle cx="1073.9991" cy="366.5422" r="1" stroke="black" fill="black" />
<line x1="1166.7756" y1="654.05426" x2="1073.9991" y2="366.5422" style="stroke:black;stroke-width:0.3" />
<circle cx="725.2391" cy="0.0" r="1" stroke="black" fill="black" />
<line x1="1073.9991" y1="366.5422" x2="725.2391" y2="0.0" style="stroke:black;stroke-width:0.3" />
<circle cx="517.0581" cy="275.6177" r="1" stroke="black" fill="black" />
<line x1="725.2391" y1="0.0" x2="517.0581" y2="275.6177" style="stroke:black;stroke-width:0.3" />
<circle cx="442.66718" cy="225.47896" r="1" stroke="black" fill="black" />
<line x1="517.0581" y1="275.6177" x2="442.66718" y2="225.47896" style="stroke:black;stroke-width:0.3" />
<circle cx="576.17487" cy="1326.2369" r="1" stroke="black" fill="black" />
<line x1="442.66718" y1="225.47896" x2="576.17487" y2="1326.2369" style="stroke:black;stroke-width:0.3" />
<circle cx="590.3174" cy="1339.8322" r="1" stroke="black" fill="black" />
<line x1="576.17487" y1="1326.2369" x2="590.3174" y2="1339.8322" style="stroke:black;stroke-width:0.3" />
<circle cx="602.19763" cy="1337.8484" r="1" stroke="black" fill="black" />
<line x1="590.3174" y1="1339.8322" x2="602.19763" y2="1337.8484" style="stroke:black;stroke-width:0.3" />
<circle cx="607.28894" cy="1339.8322" r="1" stroke="black" fill="black" />
<line x1="602.19763" y1="1337.8484" x2="607.28894" y2="1339.8322" style="stroke:black;stroke-width:0.3" />
<circle cx="490.75293" cy="1377.7897" r="1" stroke="black" fill="black" />
<line x1="607.28894" y1="1339.8322" x2="490.75293" y2="1377.7897" style="stroke:black;stroke-width:0.3" />
<circle cx="465.86185" cy="1444.6387" r="1" stroke="black" fill="black" />
<line x1="490.75293" y1="1377.7897" x2="465.86185" y2="1444.6387" style="stroke:black;stroke-width:0.3" />
<circle cx="1671.3887" cy="1159.676" r="1" stroke="black" fill="black" />
<line x1="465.86185" y1="1444.6387" x2="1671.3887" y2="1159.676" style="stroke:black;stroke-width:0.3" />
<line x1="1671.3887" y1="1159.676" x2="0.0" y2="271.65024" style="stroke:black;stroke-width:0.3" />
</svg>